<svg xmlns:rdf="http://www.w3.org/1999/02/22-rdf-syntax-ns#" xmlns="http://www.w3.org/2000/svg" xml:space="preserve" height="137.08" viewBox="0 0 539.42126 137.08" width="539.42" version="1.1" xmlns:cc="http://creativecommons.org/ns#" xmlns:dc="http://purl.org/dc/elements/1.1/"><g transform="matrix(1.25 0 0 -1.25 -30.863 493.2)"><g fill="#7fcc28" transform="translate(-38.596 -81.071)"><path d="m63.287 420.8c0 30.306 24.526 54.834 54.831 54.834 0.463 0 0.83-0.374 0.83-0.828 0-0.461-0.367-0.831-0.83-0.831-14.697 0-27.986-5.948-37.605-15.563-9.622-9.626-15.566-22.912-15.572-37.612 0.006-14.704 5.95-27.979 15.572-37.609 9.619-9.619 22.908-15.563 37.605-15.571 0.463 0 0.83-0.359 0.83-0.822s-0.367-0.828-0.83-0.828c-30.305 0-54.831 24.522-54.831 54.83"/><path d="m67.455 420.8c0 27.986 22.651 50.666 50.663 50.666 28.02 0 50.671-22.68 50.671-50.666 0-27.993-22.651-50.662-50.671-50.662v1.656c13.551 0 25.803 5.484 34.665 14.35 8.869 8.871 14.344 21.117 14.344 34.656 0 13.537-5.475 25.788-14.344 34.654-8.866 8.875-21.114 14.35-34.665 14.35s-25.798-5.475-34.663-14.35c-8.867-8.866-14.345-21.117-14.345-34.654 0-13.539 5.478-25.785 14.345-34.656 8.865-8.866 21.112-14.35 34.663-14.35v-1.656c-28.012 0-50.663 22.669-50.663 50.662"/><path d="m73.25 420.8c0-24.803 20.067-44.84 44.868-44.84 24.806 0 44.87 20.037 44.87 44.84 0 24.809-20.064 44.845-44.87 44.845-24.801 0-44.868-20.036-44.868-44.845zm11.96-32.893c-8.414 8.4-13.615 20.035-13.615 32.893 0 12.864 5.201 24.489 13.615 32.898 8.419 8.417 20.055 13.604 32.908 13.604 12.86 0 24.493-5.187 32.912-13.604 8.417-8.409 13.617-20.034 13.617-32.898 0-12.858-5.2-24.493-13.617-32.893-8.419-8.411-20.052-13.606-32.912-13.606-12.853 0-24.489 5.195-32.908 13.606"/><path d="m118.12 378.42v1.655c11.26 0 21.429 4.554 28.793 11.93 7.364 7.375 11.911 17.554 11.911 28.796 0 11.25-4.547 21.424-11.911 28.793-7.364 7.374-17.533 11.939-28.793 11.939-11.256 0-21.428-4.565-28.788-11.939-7.363-7.369-11.914-17.543-11.914-28.793 0-11.242 4.551-21.421 11.914-28.796 7.36-7.376 17.532-11.93 28.788-11.93v-1.655c-23.425 0-42.357 18.991-42.357 42.381 0 23.391 18.932 42.392 42.357 42.392 23.428 0 42.362-19.001 42.362-42.392 0-23.39-18.934-42.381-42.362-42.389v0.008"/><path d="m91.088 393.76c-6.916 6.916-11.187 16.474-11.185 27.037-0.002 10.564 4.269 20.127 11.185 27.037 6.91 6.908 16.47 11.184 27.03 11.184 0.459 0 0.83-0.369 0.83-0.829 0-0.455-0.371-0.831-0.83-0.831-20.216 0-36.557-16.344-36.557-36.561 0-20.213 16.341-36.563 36.557-36.563 20.217 0 36.567 16.35 36.567 36.563 0 0.455 0.367 0.828 0.827 0.828 0.455 0 0.825-0.373 0.825-0.828 0-10.563-4.268-20.121-11.18-27.037-6.914-6.907-16.477-11.181-27.039-11.181-10.56 0-20.12 4.274-27.03 11.181"/><path d="m94.03 396.71c-6.156 6.16-9.963 14.681-9.963 24.08 0 9.409 3.807 17.923 9.963 24.091 6.155 6.155 14.677 9.968 24.088 9.968 9.416 0 17.939-3.813 24.092-9.968 6.161-6.168 9.964-14.682 9.964-24.091 0-0.449-0.372-0.822-0.827-0.822-0.462 0-0.83 0.373-0.83 0.822 0 8.959-3.619 17.046-9.478 22.913-5.862 5.87-13.957 9.487-22.921 9.487-8.956 0-17.054-3.617-22.913-9.487-5.861-5.867-9.483-13.954-9.483-22.913 0-8.946 3.622-17.036 9.483-22.906 5.859-5.864 13.957-9.483 22.913-9.483 0.463 0 0.83-0.375 0.83-0.832 0-0.46-0.367-0.828-0.83-0.828-9.411 0-17.933 3.808-24.088 9.969"/><path d="m89.587 420.8c0-15.778 12.749-28.506 28.531-28.506 15.779 0 28.533 12.728 28.539 28.506-0.006 15.785-12.76 28.503-28.539 28.503-15.782 0-28.531-12.718-28.531-28.503zm7.563-20.954c-5.358 5.362-8.666 12.757-8.666 20.954 0 8.19 3.308 15.603 8.666 20.955 5.364 5.353 12.778 8.659 20.968 8.659 8.195 0 15.607-3.306 20.965-8.659 5.362-5.352 8.677-12.765 8.673-20.955 0.004-8.197-3.311-15.592-8.673-20.954-5.358-5.355-12.77-8.655-20.965-8.655-8.19 0-15.604 3.3-20.968 8.655"/><path d="m92.375 420.8c0 14.219 11.523 25.775 25.743 25.775 0.459 0 0.83-0.37 0.83-0.834 0-0.452-0.371-0.821-0.83-0.821-6.652 0-12.67-2.706-17.034-7.077-4.36-4.363-7.054-10.385-7.054-17.043 0-6.657 2.694-12.686 7.054-17.047 4.364-4.369 10.382-7.068 17.034-7.068 6.661 0 12.677 2.699 17.036 7.068 4.361 4.361 7.056 10.39 7.056 17.047 0 0.455 0.37 0.828 0.83 0.828 0.456 0 0.828-0.373 0.828-0.828 0-14.225-11.523-25.775-25.75-25.775-14.22 0-25.743 11.55-25.743 25.775"/><path d="m116.46 400.02c0 0.92 0.749 1.66 1.659 1.66 10.556 0.026 19.106 8.537 19.119 19.119-0.013 10.583-8.563 19.127-19.119 19.127s-19.097-8.544-19.12-19.127c0-0.913-0.743-1.654-1.656-1.654-0.915 0-1.656 0.741-1.656 1.654 0 12.413 10.047 22.41 22.432 22.437 12.392-0.027 22.438-10.024 22.44-22.437-0.002-12.409-10.048-22.431-22.44-22.431-0.91 0-1.659 0.735-1.659 1.652"/><path d="m100.68 420.8c0 0.455 0.371 0.828 0.829 0.828 0.457 0 0.827-0.373 0.827-0.828 0.017-8.721 7.063-15.762 15.782-15.78 8.719 0.018 15.771 7.059 15.779 15.78 0 0.455 0.382 0.828 0.835 0.828 0.455 0 0.831-0.373 0.831-0.828 0-9.625-7.811-17.443-17.445-17.443-9.632 0-17.438 7.818-17.438 17.443"/><path d="m107.03 420.8c0.007-6.146 4.968-11.059 11.092-11.065 6.127 0.006 11.097 4.919 11.097 11.065 0 6.148-4.97 11.071-11.097 11.071-6.124 0-11.085-4.923-11.092-11.071zm-2.76 0c0.013 7.676 6.218 13.82 13.852 13.83 7.643-0.01 13.841-6.154 13.854-13.83-0.013-7.677-6.211-13.814-13.854-13.825-7.634 0.011-13.839 6.148-13.852 13.825"/><path d="m116.46 412.46c0 0.919 0.749 1.66 1.659 1.66 3.667 0.005 6.643 3.002 6.651 6.675-0.008 3.675-2.984 6.671-6.651 6.681-3.667-0.01-6.636-3.006-6.646-6.681 0-0.913-0.745-1.654-1.655-1.654-0.922 0-1.663 0.741-1.663 1.654 0.006 5.501 4.451 9.993 9.964 9.993 5.516 0 9.964-4.492 9.966-9.993-0.002-5.493-4.45-9.985-9.966-9.993-0.91 0-1.659 0.746-1.659 1.658"/><path d="m186.97 434.42h18.174v-4.418h-13.291v-6.741h12.593v-4.418h-12.593v-7.438h13.988v-4.421h-18.871v27.436"/><path d="m221.26 420c-1.084 1.126-2.285 1.861-3.526 1.861-3.41 0-5.463-2.675-5.463-5.578 0-2.909 2.053-5.582 5.463-5.582 1.433 0 2.751 0.622 3.604 1.742l3.1-3.33c-1.899-1.902-5.077-2.596-6.704-2.596-5.619 0-10.113 3.911-10.113 9.766 0 5.85 4.494 9.762 10.113 9.762 2.364 0 4.96-0.851 6.743-2.827l-3.22-3.22"/><path d="m236.1 410.7c3.41 0 5.464 2.673 5.464 5.582 0 2.903-2.054 5.578-5.464 5.578s-5.463-2.675-5.463-5.578c0-2.909 2.053-5.582 5.463-5.582zm0 15.344c5.619 0 10.113-3.912 10.113-9.762 0-5.855-4.494-9.766-10.113-9.766s-10.113 3.911-10.113 9.766c0 5.85 4.494 9.762 10.113 9.762"/><path d="m251.31 434.42h4.882v-10.928h12.827v10.928h4.881v-27.436h-4.881v12.089h-12.827v-12.089h-4.882v27.436"/><path d="m291.24 418.14c-0.042 2.715-1.822 4.419-4.729 4.419-2.749 0-4.456-1.742-4.804-4.419h9.533zm-9.533-3.485c0.31-2.749 2.401-4.415 4.999-4.415 2.323 0 3.835 1.085 4.996 2.519l3.333-2.519c-2.169-2.678-4.921-3.721-7.866-3.721-5.618 0-10.112 3.911-10.112 9.766 0 5.85 4.494 9.762 10.112 9.762 5.194 0 8.72-3.642 8.72-10.112v-1.28h-14.182"/><path d="m310.98 415.31h-0.965c-2.56 0-6.975-0.195-6.975-2.868 0-1.701 1.742-2.441 3.253-2.441 3.177 0 4.687 1.665 4.687 4.266v1.043zm0.273-5.772h-0.115c-1.319-2.092-3.488-3.022-5.968-3.022-3.448 0-6.782 1.897-6.782 5.576 0 6.045 7.052 6.471 11.704 6.471h1.161v0.504c0 2.289-1.783 3.489-4.261 3.489-1.937 0-3.722-0.774-4.96-1.935l-2.441 2.439c2.053 2.094 4.96 2.984 7.905 2.984 7.94 0 7.94-5.734 7.94-8.369v-10.697h-4.183v2.56"/><path d="m318.99 436.28h4.652v-29.296h-4.652v29.296z"/><path d="m327.09 421.63v3.952h3.837v5.384h4.649v-5.384h5.116v-3.952h-5.116v-8.138c0-1.86 0.542-3.023 2.598-3.023 0.812 0 1.935 0.155 2.518 0.582v-3.917c-0.971-0.462-2.597-0.617-3.682-0.617-4.921 0-6.083 2.21-6.083 6.584v8.529h-3.837"/><path d="m349.72 422.98h0.079c0.735 1.549 2.596 3.061 5.464 3.061 4.996 0 6.779-3.527 6.779-7.321v-11.745h-4.651v9.417c0 2.056-0.155 5.465-3.408 5.465-3.063 0-4.263-2.248-4.263-4.73v-10.152h-4.65v29.296h4.65v-13.291"/><path d="m385.25 430.23h-0.08l-5.694-13.486h11.199l-5.425 13.486zm-1.473 4.184h3.061l11.665-27.436h-3.798l-2.791 6.744h-13.719l-2.826-6.744h-3.681l12.089 27.436"/><path d="m400.59 436.28h3.022v-29.296h-3.022v29.296z"/><path d="m407.23 436.28h3.021v-29.296h-3.021v29.296z"/><path d="m414.41 425.12h3.023v-18.138h-3.023v18.138zm1.512 9.298c1.241 0 2.21-1.008 2.21-2.208 0-1.28-0.931-2.21-2.21-2.21-1.278 0-2.208 0.93-2.208 2.21 0 1.2 0.969 2.208 2.208 2.208"/><path d="m430.32 415.7c-3.837 0-6.317-1.049-6.317-3.49 0-2.288 1.707-3.14 3.994-3.14 3.484 0 5.269 2.518 5.346 5.463v1.167h-3.023zm-8.758 7.089c1.861 1.899 4.575 2.791 7.209 2.791 5.347 0 7.593-2.56 7.593-7.675v-7.787c0-1.048 0.118-2.21 0.273-3.141h-2.907c-0.192 0.818-0.192 1.939-0.192 2.714h-0.077c-1.203-1.86-3.218-3.176-5.968-3.176-3.682 0-6.743 1.861-6.743 5.387 0 6.003 6.975 6.353 11.431 6.353h1.162v0.545c0 2.632-1.666 3.989-4.495 3.989-1.938 0-3.952-0.658-5.387-1.976l-1.899 1.976"/><path d="m440.19 420.82c0 1.665-0.153 3.099-0.153 4.302h2.867c0-0.969 0.077-1.977 0.077-2.984h0.078c0.812 1.781 3.058 3.449 6.044 3.449 4.765 0 6.898-3.025 6.898-7.403v-11.2h-3.023v10.892c0 3.021-1.318 4.92-4.147 4.92-3.911 0-5.618-2.829-5.618-6.976v-8.836h-3.023v13.836"/><path d="m473.05 420.58c-1.281 1.552-2.75 2.21-4.573 2.21-4.068 0-6.124-3.024-6.124-6.744 0-3.717 2.442-6.739 6.124-6.739 1.977 0 3.488 0.694 4.614 2.246l2.246-2.133c-1.742-2.015-4.226-2.904-6.86-2.904-5.62 0-9.377 3.952-9.377 9.53 0 5.502 3.798 9.535 9.377 9.535 2.676 0 5.153-0.892 6.975-2.868l-2.402-2.133"/><path d="m491.57 417.68c-0.115 3.061-2.13 5.115-5.464 5.115-3.333 0-5.54-2.054-5.928-5.115h11.392zm2.599-7.402c-2.134-2.75-4.69-3.757-8.063-3.757-5.697 0-9.181 4.261-9.181 9.53 0 5.621 3.952 9.535 9.298 9.535 5.114 0 8.603-3.49 8.603-9.494v-0.972h-14.648c0.231-3.136 2.637-5.808 5.928-5.808 2.599 0 4.341 0.93 5.776 2.749l2.287-1.783"/></g></g></svg>
